<?xml version="1.0" encoding="utf-8"?>
<!-- Generator: Adobe Illustrator 22.1.0, SVG Export Plug-In . SVG Version: 6.00 Build 0)  -->
<svg version="1.1" id="_x31_0" xmlns="http://www.w3.org/2000/svg" xmlns:xlink="http://www.w3.org/1999/xlink" x="0px" y="0px"
	 viewBox="0 0 128 128" style="enable-background:new 0 0 128 128;" xml:space="preserve">
<style type="text/css">
	.st0{fill:#40210F;}
	.st1{fill:#6A3906;}
	.st2{fill:#F29600;}
</style>
<g>
	<rect class="st0" width="128" height="128"/>
	<g>
		<path class="st1" d="M108.364,54.546v18.909c0,0.113,0,0.226-0.002,0.338c-0.042,4.484-0.935,8.769-2.524,12.699
			c-0.451,1.118-0.959,2.206-1.519,3.262c-1.984,3.742-4.629,7.083-7.778,9.864c-1.004,0.887-2.058,1.716-3.159,2.484
			c-3.916,2.733-8.416,4.684-13.271,5.626c-1.11,0.215-2.239,0.377-3.383,0.484c-1.078,0.102-2.17,0.153-3.273,0.153H54.546
			c-2.576,0-5.086-0.28-7.504-0.812c-1.208-0.265-2.394-0.594-3.551-0.983c-4.161-1.391-7.976-3.549-11.276-6.303
			c-0.941-0.784-1.839-1.617-2.691-2.495c-2.591-2.664-4.761-5.741-6.401-9.12c-0.645-1.328-1.208-2.703-1.682-4.118v-0.001
			c-1.17-3.482-1.802-7.207-1.802-11.078V54.546c0-0.436,0.008-0.872,0.024-1.304c0.143-3.884,0.924-7.608,2.241-11.07
			c0.429-1.13,0.916-2.233,1.458-3.303c2.023-4.01,4.798-7.578,8.137-10.519c1.004-0.885,2.058-1.713,3.16-2.479h0.001
			c4.056-2.822,8.736-4.806,13.788-5.699c1.107-0.198,2.232-0.341,3.372-0.429c0.901-0.07,1.81-0.105,2.727-0.105h18.909
			c2.618,0,5.169,0.29,7.623,0.839c1.21,0.27,2.394,0.604,3.553,0.996c4.176,1.415,8,3.599,11.302,6.385
			c0.937,0.789,1.833,1.628,2.68,2.512c2.464,2.562,4.542,5.499,6.137,8.715c0.654,1.32,1.229,2.688,1.715,4.097
			c1.08,3.127,1.727,6.455,1.869,9.909C108.354,53.573,108.364,54.058,108.364,54.546z"/>
		<polygon class="st0" points="68.752,19.636 67.201,37.818 65.59,56.729 65.255,60.668 65.217,61.109 65.213,61.142 65.162,61.742 
			65.124,62.207 65.075,62.764 65.025,63.348 65.025,63.349 65.005,63.595 64.925,64.675 64.876,65.331 64.876,65.332 
			64.874,65.355 64.874,65.356 64.852,65.648 64.834,65.907 64.788,66.521 64.788,66.522 64.726,67.345 64.572,69.418 
			63.032,90.182 61.682,108.364 59.166,108.364 60.716,90.181 62.274,71.897 62.629,67.735 62.73,66.551 62.829,65.381 
			62.838,65.288 62.856,65.076 62.858,65.047 62.932,64.181 62.995,63.435 63.023,63.055 63.023,63.053 63.052,62.669 
			63.078,62.332 63.086,62.215 63.139,61.484 63.148,61.382 63.212,60.504 63.212,60.503 63.476,56.95 64.896,37.818 66.246,19.636 
					"/>
		<path class="st0" d="M80.11,107.727c-1.11,0.215-2.239,0.377-3.383,0.484l-5.749-18.35l-6.406-20.442l-0.524-1.674L63.69,66.6
			l-0.155-0.497l-0.102-0.326l-0.001-0.001v-0.001l-0.019-0.061v-0.001l-0.109-0.347l-0.119-0.379l-0.252-0.806l-0.208-0.664
			l-0.014-0.045l-0.022-0.067l-0.243-0.736l-0.335-1.013l-0.005-0.017l-0.159-0.481l-1.201-3.645v-0.001l-0.001-0.001l-6.195-18.811
			l-6.103-18.529c1.107-0.198,2.232-0.341,3.372-0.429l5.738,18.313l5.92,18.896l0.855,2.726l0.464,1.482l0.008,0.027l0.049,0.157
			l0.115,0.366l0.156,0.498l0.153,0.489l0.166,0.503V63.2l0.001,0.001l0.155,0.472v0.001l0.089,0.269l0.133,0.404l0.056,0.17
			l0.085,0.259l0.379,1.15v0.001l0.616,1.869l1.235,3.752l0.001,0.001v0.001l5.794,17.589L80.11,107.727z"/>
		<path class="st0" d="M96.541,99.618c-1.004,0.887-2.058,1.716-3.159,2.484L80.194,86.105L68.193,71.55v-0.001l-0.001-0.001
			l-3.465-4.202l-0.335-0.406l-0.478-0.579l-0.265-0.321l-0.216-0.262l-0.001-0.001v-0.001l-0.08-0.097l-0.29-0.351h-0.001
			l-0.205-0.25l-0.021-0.024l-0.054-0.067l-0.49-0.573l-0.27-0.316l-0.704-0.826l-1.108-1.297l-1.16-1.359l-1.325-1.551
			L45.006,44.171L31.497,28.349c1.004-0.885,2.058-1.713,3.16-2.479h0.001l13.189,15.996L60.744,57.51l0.001,0.001v0.001l2.467,2.99
			v0.001l0.504,0.611l0.195,0.236l0.169,0.205l0.124,0.149l0.038,0.046l0.834,1.012l0.144,0.175l0.223,0.261V63.2l0.001,0.001
			l0.377,0.441l0.259,0.304l0.002,0.001l0.057,0.068l0.342,0.4l0.049,0.057l1.514,1.773l3.752,4.394l0.002,0.001l11.231,13.154
			L96.541,99.618z"/>
		<path class="st0" d="M105.838,86.492c-0.451,1.118-0.959,2.206-1.519,3.262L86.65,79.37l-14.852-8.729l-0.002-0.001l-4.839-2.844
			l-2.168-1.274v-0.001l-0.175-0.102l-0.487-0.286l-0.315-0.185l-0.399-0.234v-0.001l-0.061-0.035l-0.064-0.038l-0.458-0.259
			l-0.232-0.131l-0.204-0.116l-0.338-0.191l-0.55-0.313l-1.326-0.751L57.59,62.41l-5.442-3.086l-12.621-7.158c0,0,0,0,0-0.001
			l-17.626-9.994c0.429-1.13,0.916-2.233,1.458-3.303l17.627,10.36h0.001l16.736,9.835l3.255,1.913l1.127,0.663l0.023,0.013
			l0.958,0.562l0.099,0.059l0.028,0.016l0.338,0.199l1.161,0.682l0.313,0.177v0.001l0.573,0.324v0.001l0.166,0.093l0.315,0.179
			l0.002,0.001l0.08,0.045l0.615,0.349l0.034,0.019l4.354,2.469l17.028,9.656L105.838,86.492z"/>
		<path class="st0" d="M108.364,68.891v4.564c0,0.113,0,0.226-0.002,0.338l-18.402-3.445L71.165,66.83l-3.121-0.584l-1.703-0.319
			v-0.001l-1.404-0.262l-0.085-0.016l-0.231-0.044l-0.146-0.028l-0.812-0.151l-0.36-0.059l-0.241-0.04h-0.001l-0.223-0.038
			l-0.24-0.039l-0.436-0.073l-0.196-0.033l-0.824-0.137h-0.001l-2.352-0.389l-7.252-1.2l-13.718-2.27l-18.182-3.008v-3.594
			c0-0.436,0.008-0.872,0.024-1.304l18.533,3.469l13.954,2.613l6.901,1.291l1.93,0.361l0.969,0.182l1.201,0.224l0.284,0.053h0.001
			l0.136,0.026l0.512,0.096l0.257,0.049l0.035,0.006h0.001l0.594,0.098l0.195,0.033l1.402,0.232l1.333,0.221l2.217,0.367
			l3.759,0.622l16.308,2.7L108.364,68.891z"/>
		<path class="st0" d="M108.364,54.546v2.888l-18.185,3.032l-16.304,2.718l-7.063,1.178l-0.103,0.017l-0.227,0.038l-0.605,0.1
			l-0.262,0.044l-0.219,0.036l-0.47,0.079l-0.625,0.104l-1.115,0.207l-0.326,0.061l-0.023,0.005l-0.441,0.081l-0.233,0.044
			l-0.23,0.042l-1.213,0.227l-5.344,0.993l-17.416,3.24l-18.321,3.407v-4.349l18.182-3.032l13.718-2.287l6.055-1.009l2.618-0.436
			l1.902-0.318l0.018-0.004l1.011-0.168l0.292-0.049h0.001l0.158-0.027l0.111-0.018l0.21-0.039l0.852-0.159l0.04-0.007l0.413-0.076
			l0.085-0.017l1.806-0.336l2.653-0.493l7.162-1.332l12.851-2.389l18.559-3.452C108.354,53.573,108.364,54.058,108.364,54.546z"/>
		<path class="st0" d="M106.464,43.181l-17.792,9.486h-0.001l-11.748,6.264l-6.809,3.63l-3.338,1.781l-0.069,0.036l-0.178,0.095
			l-0.569,0.303l-0.835,0.446l-0.252,0.133v0.001l-0.033,0.017l-0.008,0.005h-0.001l-0.001,0.001l-0.355,0.197l-0.664,0.371
			l-0.162,0.091l-0.114,0.064l-0.805,0.449l-1.853,1.034l-4.818,2.688l-15.11,8.43l-17.827,9.947
			c-0.645-1.328-1.208-2.703-1.682-4.118v-0.001l17.784-9.481l16.15-8.612l3.415-1.821l1.392-0.741l1.137-0.607l1.129-0.601
			l0.633-0.337l0.081-0.044l0.027-0.015l0.045-0.024v-0.001l0.001-0.001l0.972-0.542l0.167-0.093l0.001-0.001h0.001l0.479-0.268
			l0.361-0.201l0.089-0.05l2.205-1.229l5.722-3.194l0.002-0.001l13.67-7.627l17.847-9.958
			C105.404,40.404,105.978,41.772,106.464,43.181z"/>
		<path class="st0" d="M98.612,30.368L84.151,45.353l-10.92,11.315l-0.002,0.001l-3.468,3.594l-1.863,1.931l-1.736,1.799
			l-0.023,0.023l-0.319,0.331l-0.206,0.213l-0.367,0.382l-0.001,0.001l-0.001,0.001l-0.19,0.196l-0.178,0.19v0.001l-0.044,0.046
			h-0.001l-0.001,0.001l-0.21,0.225l-0.494,0.528l-0.212,0.227L63.69,66.6l-1.061,1.135l-3.479,3.72v0.001l-12.73,13.613
			l-14.207,15.196c-0.941-0.784-1.839-1.617-2.691-2.495l14.457-14.982l12.079-12.515l4.659-4.828l0.422-0.439h0.001l0.365-0.378
			l0.515-0.533l0.667-0.691l0.091-0.095l0.167-0.173l0.078-0.082v-0.001l0.528-0.565l0.69-0.737l0.13-0.139l0.001-0.001h0.001
			l0.39-0.418l0.032-0.034l0.459-0.491l3.62-3.873l12.851-13.744l14.206-15.194C96.869,28.646,97.765,29.485,98.612,30.368z"/>
		<path class="st0" d="M84.63,21.472l-8.172,18.322l-7.583,17.001l-1.368,3.068l-0.399,0.893l-0.543,1.217l-0.744,1.669
			l-0.056,0.125l-0.078,0.176l-0.292,0.653l-0.062,0.139l-0.087,0.207l-0.001,0.001l-0.119,0.278l-0.189,0.442l-0.103,0.243
			l-0.221,0.513l-0.222,0.52l-0.343,0.805l-1.775,4.153l-7.467,17.476l-7.766,18.178c-1.208-0.265-2.394-0.594-3.551-0.983
			l8.167-18.311l7.493-16.801v-0.001l1.726-3.869l1.055-2.366l0.034-0.075l0.091-0.202l0.235-0.53l0.376-0.841l0.042-0.099
			l0.069-0.161l0.274-0.641l0.161-0.379l0.017-0.041l0.001-0.001l0.337-0.787l0.022-0.052l0.126-0.293l0.615-1.439l1.259-2.948
			l7.719-18.069l7.769-18.184C82.287,20.745,83.471,21.079,84.63,21.472z"/>
		<path class="st2" d="M67.152,90.182h-6.303c-12.667,0-23.03-10.364-23.03-23.03v-6.303c0-9.344,5.103-19.027,13.684-21.037
			c5.005-1.172,10.213,0.213,12.095,5.009h0l0.537-1.058c2.117-4.17,9.293-5.385,13.644-3.669
			c8.548,3.373,12.404,11.045,12.404,20.754v6.303C90.182,79.818,79.818,90.182,67.152,90.182z"/>
		<g>
			<g>
				<path class="st0" d="M61.748,63.916c-3.118-0.054-9.566,7.272-4.206,8.4c5.36,1.128,12.976,1.41,13.258-1.41
					C71.082,68.085,65.39,63.979,61.748,63.916z"/>
				<path class="st0" d="M56.744,60.778c-0.385,0.578-1.734,9.442-0.385,9.442c1.349,0,1.464-9.663,1.464-9.663L56.744,60.778z"/>
				<path class="st0" d="M69.846,69.257c-0.193-3.468-1.927-10.02-0.771-10.598c1.156-0.578,1.156-0.578,1.156-0.578l0.578,13.103
					L69.846,69.257z"/>
			</g>
			<path class="st0" d="M52.89,62.127c-2.575,0.224-3.083-3.854,0-4.432C55.973,57.117,57.322,61.742,52.89,62.127z"/>
			<path class="st0" d="M64.259,73.688c2.12,1.156,7.708,3.276,8.478,4.817c0.771,1.541,0.771,2.89-0.385,2.12
				c-1.156-0.771-6.551-5.588-8.478-5.973c-1.927-0.385-6.157,4.935-7.699,4.742c-1.542-0.193-2.899-0.696,0.377-2.622
				c3.276-1.927,4.817-2.312,5.973-4.047C63.681,70.991,64.259,73.688,64.259,73.688z"/>
		</g>
		<path class="st0" d="M72.538,61.091c-1.876-0.782-1.818-3.515,0.242-3.879c2.061-0.364,3.758,0.97,3.273,2.667
			C75.568,61.576,73.993,61.697,72.538,61.091z"/>
	</g>
</g>
</svg>
